{
 "cells": [
  {
   "cell_type": "code",
   "execution_count": 1,
   "metadata": {},
   "outputs": [],
   "source": [
    "import os\n",
    "from ultralytics import YOLO\n",
    "\n",
    "from utils.detect import detection_test\n",
    "\n",
    "ppath = os.environ.get(\"PROJECT_PATH\", \"\")"
   ]
  },
  {
   "cell_type": "markdown",
   "metadata": {},
   "source": [
    "## UECFOOD100 Detector Test"
   ]
  },
  {
   "cell_type": "code",
   "execution_count": 4,
   "metadata": {},
   "outputs": [
    {
     "name": "stdout",
     "output_type": "stream",
     "text": [
      "rm: cannot remove '/root/workspace/s7/videos/detected/*': No such file or directory\n"
     ]
    }
   ],
   "source": [
    "!rm {ppath}/outputs/*"
   ]
  },
  {
   "cell_type": "code",
   "execution_count": 6,
   "metadata": {},
   "outputs": [
    {
     "name": "stdout",
     "output_type": "stream",
     "text": [
      "Loading tray detection model from: models/tray_detector.pt\n",
      "Loading food detection model from: /root/workspace/s7/models/food_detector_uecf100.pt\n",
      "Processing videos/test/orange_carrot_tray-4.mp4\n"
     ]
    },
    {
     "name": "stdout",
     "output_type": "stream",
     "text": [
      "Processed video saved to: videos/detected/orange_carrot_tray-4_annotated.mp4\n",
      "Processing videos/test/pizza_tray-3.mp4\n",
      "Processed video saved to: videos/detected/pizza_tray-3_annotated.mp4\n",
      "Processing videos/test/tray_video.mkv\n",
      "Processed video saved to: videos/detected/tray_video_annotated.mkv\n"
     ]
    }
   ],
   "source": [
    "detection_test(food_model_path=f\"{ppath}/models/food_detector_uecf100.pt\")"
   ]
  },
  {
   "cell_type": "code",
   "execution_count": null,
   "metadata": {},
   "outputs": [
    {
     "name": "stdout",
     "output_type": "stream",
     "text": [
      "ffmpeg version 4.4.2-0ubuntu0.22.04.1 Copyright (c) 2000-2021 the FFmpeg developers\n",
      "  built with gcc 11 (Ubuntu 11.2.0-19ubuntu1)\n",
      "  configuration: --prefix=/usr --extra-version=0ubuntu0.22.04.1 --toolchain=hardened --libdir=/usr/lib/x86_64-linux-gnu --incdir=/usr/include/x86_64-linux-gnu --arch=amd64 --enable-gpl --disable-stripping --enable-gnutls --enable-ladspa --enable-libaom --enable-libass --enable-libbluray --enable-libbs2b --enable-libcaca --enable-libcdio --enable-libcodec2 --enable-libdav1d --enable-libflite --enable-libfontconfig --enable-libfreetype --enable-libfribidi --enable-libgme --enable-libgsm --enable-libjack --enable-libmp3lame --enable-libmysofa --enable-libopenjpeg --enable-libopenmpt --enable-libopus --enable-libpulse --enable-librabbitmq --enable-librubberband --enable-libshine --enable-libsnappy --enable-libsoxr --enable-libspeex --enable-libsrt --enable-libssh --enable-libtheora --enable-libtwolame --enable-libvidstab --enable-libvorbis --enable-libvpx --enable-libwebp --enable-libx265 --enable-libxml2 --enable-libxvid --enable-libzimg --enable-libzmq --enable-libzvbi --enable-lv2 --enable-omx --enable-openal --enable-opencl --enable-opengl --enable-sdl2 --enable-pocketsphinx --enable-librsvg --enable-libmfx --enable-libdc1394 --enable-libdrm --enable-libiec61883 --enable-chromaprint --enable-frei0r --enable-libx264 --enable-shared\n",
      "  libavutil      56. 70.100 / 56. 70.100\n",
      "  libavcodec     58.134.100 / 58.134.100\n",
      "  libavformat    58. 76.100 / 58. 76.100\n",
      "  libavdevice    58. 13.100 / 58. 13.100\n",
      "  libavfilter     7.110.100 /  7.110.100\n",
      "  libswscale      5.  9.100 /  5.  9.100\n",
      "  libswresample   3.  9.100 /  3.  9.100\n",
      "  libpostproc    55.  9.100 / 55.  9.100\n",
      "Input #0, mov,mp4,m4a,3gp,3g2,mj2, from '/root/workspace/s7/videos/detected/orange_carrot_tray-4_annotated.mp4':\n",
      "  Metadata:\n",
      "    major_brand     : isom\n",
      "    minor_version   : 512\n",
      "    compatible_brands: isomiso2mp41\n",
      "    encoder         : Lavf59.27.100\n",
      "  Duration: 00:00:54.16, start: 0.000000, bitrate: 7418 kb/s\n",
      "  Stream #0:0(und): Video: mpeg4 (Simple Profile) (mp4v / 0x7634706D), yuv420p, 1920x1080 [SAR 1:1 DAR 16:9], 7416 kb/s, 29.97 fps, 29.97 tbr, 11988 tbn, 2997 tbc (default)\n",
      "    Metadata:\n",
      "      handler_name    : VideoHandler\n",
      "      vendor_id       : [0][0][0][0]\n",
      "Stream mapping:\n",
      "  Stream #0:0 -> #0:0 (mpeg4 (native) -> gif (native))\n",
      "Press [q] to stop, [?] for help\n",
      "Output #0, gif, to '/root/workspace/s7/videos/detected/orange_carrot_tray-4_annotated.gif':\n",
      "  Metadata:\n",
      "    major_brand     : isom\n",
      "    minor_version   : 512\n",
      "    compatible_brands: isomiso2mp41\n",
      "    encoder         : Lavf58.76.100\n",
      "  Stream #0:0(und): Video: gif, bgr8(pc, gbr/unknown/unknown, progressive), 320x180 [SAR 1:1 DAR 16:9], q=2-31, 200 kb/s, 10 fps, 100 tbn (default)\n",
      "    Metadata:\n",
      "      handler_name    : VideoHandler\n",
      "      vendor_id       : [0][0][0][0]\n",
      "      encoder         : Lavc58.134.100 gif\n",
      "frame=  542 fps=287 q=-0.0 Lsize=    6806kB time=00:00:54.11 bitrate=1030.4kbits/s speed=28.6x    \n",
      "video:6806kB audio:0kB subtitle:0kB other streams:0kB global headers:0kB muxing overhead: 0.000287%\n",
      "ffmpeg version 4.4.2-0ubuntu0.22.04.1 Copyright (c) 2000-2021 the FFmpeg developers\n",
      "  built with gcc 11 (Ubuntu 11.2.0-19ubuntu1)\n",
      "  configuration: --prefix=/usr --extra-version=0ubuntu0.22.04.1 --toolchain=hardened --libdir=/usr/lib/x86_64-linux-gnu --incdir=/usr/include/x86_64-linux-gnu --arch=amd64 --enable-gpl --disable-stripping --enable-gnutls --enable-ladspa --enable-libaom --enable-libass --enable-libbluray --enable-libbs2b --enable-libcaca --enable-libcdio --enable-libcodec2 --enable-libdav1d --enable-libflite --enable-libfontconfig --enable-libfreetype --enable-libfribidi --enable-libgme --enable-libgsm --enable-libjack --enable-libmp3lame --enable-libmysofa --enable-libopenjpeg --enable-libopenmpt --enable-libopus --enable-libpulse --enable-librabbitmq --enable-librubberband --enable-libshine --enable-libsnappy --enable-libsoxr --enable-libspeex --enable-libsrt --enable-libssh --enable-libtheora --enable-libtwolame --enable-libvidstab --enable-libvorbis --enable-libvpx --enable-libwebp --enable-libx265 --enable-libxml2 --enable-libxvid --enable-libzimg --enable-libzmq --enable-libzvbi --enable-lv2 --enable-omx --enable-openal --enable-opencl --enable-opengl --enable-sdl2 --enable-pocketsphinx --enable-librsvg --enable-libmfx --enable-libdc1394 --enable-libdrm --enable-libiec61883 --enable-chromaprint --enable-frei0r --enable-libx264 --enable-shared\n",
      "  libavutil      56. 70.100 / 56. 70.100\n",
      "  libavcodec     58.134.100 / 58.134.100\n",
      "  libavformat    58. 76.100 / 58. 76.100\n",
      "  libavdevice    58. 13.100 / 58. 13.100\n",
      "  libavfilter     7.110.100 /  7.110.100\n",
      "  libswscale      5.  9.100 /  5.  9.100\n",
      "  libswresample   3.  9.100 /  3.  9.100\n",
      "  libpostproc    55.  9.100 / 55.  9.100\n",
      "Input #0, mov,mp4,m4a,3gp,3g2,mj2, from '/root/workspace/s7/videos/detected/pizza_tray-3_annotated.mp4':\n",
      "  Metadata:\n",
      "    major_brand     : isom\n",
      "    minor_version   : 512\n",
      "    compatible_brands: isomiso2mp41\n",
      "    encoder         : Lavf59.27.100\n",
      "  Duration: 00:01:03.16, start: 0.000000, bitrate: 9454 kb/s\n",
      "  Stream #0:0(und): Video: mpeg4 (Simple Profile) (mp4v / 0x7634706D), yuv420p, 1080x1920 [SAR 1:1 DAR 9:16], 9453 kb/s, 29.97 fps, 29.97 tbr, 11988 tbn, 2997 tbc (default)\n",
      "    Metadata:\n",
      "      handler_name    : VideoHandler\n",
      "      vendor_id       : [0][0][0][0]\n",
      "Stream mapping:\n",
      "  Stream #0:0 -> #0:0 (mpeg4 (native) -> gif (native))\n",
      "Press [q] to stop, [?] for help\n",
      "Output #0, gif, to '/root/workspace/s7/videos/detected/pizza_tray-3_annotated.gif':\n",
      "  Metadata:\n",
      "    major_brand     : isom\n",
      "    minor_version   : 512\n",
      "    compatible_brands: isomiso2mp41\n",
      "    encoder         : Lavf58.76.100\n",
      "  Stream #0:0(und): Video: gif, bgr8(pc, gbr/unknown/unknown, progressive), 320x569 [SAR 5121:5120 DAR 9:16], q=2-31, 200 kb/s, 10 fps, 100 tbn (default)\n",
      "    Metadata:\n",
      "      handler_name    : VideoHandler\n",
      "      vendor_id       : [0][0][0][0]\n",
      "      encoder         : Lavc58.134.100 gif\n",
      "frame=  632 fps=156 q=-0.0 Lsize=   29259kB time=00:01:03.11 bitrate=3797.9kbits/s speed=15.6x    \n",
      "video:29259kB audio:0kB subtitle:0kB other streams:0kB global headers:0kB muxing overhead: 0.000067%\n",
      "ffmpeg version 4.4.2-0ubuntu0.22.04.1 Copyright (c) 2000-2021 the FFmpeg developers\n",
      "  built with gcc 11 (Ubuntu 11.2.0-19ubuntu1)\n",
      "  configuration: --prefix=/usr --extra-version=0ubuntu0.22.04.1 --toolchain=hardened --libdir=/usr/lib/x86_64-linux-gnu --incdir=/usr/include/x86_64-linux-gnu --arch=amd64 --enable-gpl --disable-stripping --enable-gnutls --enable-ladspa --enable-libaom --enable-libass --enable-libbluray --enable-libbs2b --enable-libcaca --enable-libcdio --enable-libcodec2 --enable-libdav1d --enable-libflite --enable-libfontconfig --enable-libfreetype --enable-libfribidi --enable-libgme --enable-libgsm --enable-libjack --enable-libmp3lame --enable-libmysofa --enable-libopenjpeg --enable-libopenmpt --enable-libopus --enable-libpulse --enable-librabbitmq --enable-librubberband --enable-libshine --enable-libsnappy --enable-libsoxr --enable-libspeex --enable-libsrt --enable-libssh --enable-libtheora --enable-libtwolame --enable-libvidstab --enable-libvorbis --enable-libvpx --enable-libwebp --enable-libx265 --enable-libxml2 --enable-libxvid --enable-libzimg --enable-libzmq --enable-libzvbi --enable-lv2 --enable-omx --enable-openal --enable-opencl --enable-opengl --enable-sdl2 --enable-pocketsphinx --enable-librsvg --enable-libmfx --enable-libdc1394 --enable-libdrm --enable-libiec61883 --enable-chromaprint --enable-frei0r --enable-libx264 --enable-shared\n",
      "  libavutil      56. 70.100 / 56. 70.100\n",
      "  libavcodec     58.134.100 / 58.134.100\n",
      "  libavformat    58. 76.100 / 58. 76.100\n",
      "  libavdevice    58. 13.100 / 58. 13.100\n",
      "  libavfilter     7.110.100 /  7.110.100\n",
      "  libswscale      5.  9.100 /  5.  9.100\n",
      "  libswresample   3.  9.100 /  3.  9.100\n",
      "  libpostproc    55.  9.100 / 55.  9.100\n",
      "Input #0, matroska,webm, from '/root/workspace/s7/videos/detected/tray_video_annotated.mkv':\n",
      "  Metadata:\n",
      "    ENCODER         : Lavf59.27.100\n",
      "  Duration: 00:02:10.70, start: 0.000000, bitrate: 1706 kb/s\n",
      "  Stream #0:0: Video: mpeg4 (Simple Profile), yuv420p, 640x480 [SAR 1:1 DAR 4:3], 30 fps, 30 tbr, 1k tbn, 30 tbc\n",
      "    Metadata:\n",
      "      DURATION        : 00:02:10.700000000\n",
      "Stream mapping:\n",
      "  Stream #0:0 -> #0:0 (mpeg4 (native) -> gif (native))\n",
      "Press [q] to stop, [?] for help\n",
      "Output #0, gif, to '/root/workspace/s7/videos/detected/tray_video_annotated.gif':\n",
      "  Metadata:\n",
      "    encoder         : Lavf58.76.100\n",
      "  Stream #0:0: Video: gif, bgr8(pc, gbr/unknown/unknown, progressive), 320x240 [SAR 1:1 DAR 4:3], q=2-31, 200 kb/s, 10 fps, 100 tbn\n",
      "    Metadata:\n",
      "      DURATION        : 00:02:10.700000000\n",
      "      encoder         : Lavc58.134.100 gif\n",
      "frame= 1307 fps=537 q=-0.0 Lsize=   16283kB time=00:02:10.61 bitrate=1021.3kbits/s speed=53.7x    \n",
      "video:16283kB audio:0kB subtitle:0kB other streams:0kB global headers:0kB muxing overhead: 0.000120%\n",
      "  adding: root/workspace/s7/videos/detected/orange_carrot_tray-4_annotated.gif (deflated 0%)\n",
      "  adding: root/workspace/s7/videos/detected/pizza_tray-3_annotated.gif (deflated 0%)\n",
      "  adding: root/workspace/s7/videos/detected/tray_video_annotated.gif (deflated 0%)\n"
     ]
    }
   ],
   "source": [
    "!bash scripts/convert_outputs.sh"
   ]
  },
  {
   "cell_type": "code",
   "execution_count": null,
   "metadata": {},
   "outputs": [],
   "source": [
    "from IPython.display import display, Image\n",
    "\n",
    "gif_path = f\"{ppath}/videos/detected/pizza_tray-3_annotated.gif\"\n",
    "display(Image(filename=gif_path))"
   ]
  },
  {
   "cell_type": "markdown",
   "metadata": {},
   "source": [
    "## VFN Detector Test"
   ]
  },
  {
   "cell_type": "code",
   "execution_count": null,
   "metadata": {},
   "outputs": [
    {
     "name": "stdout",
     "output_type": "stream",
     "text": [
      "Loading tray detection model from: models/tray_detector.pt\n",
      "Loading food detection model from: /root/workspace/s7/models/food_detector_vfn.pt\n",
      "Processing videos/test/orange_carrot_tray-4.mp4\n",
      "Processed video saved to: videos/detected/orange_carrot_tray-4_annotated.mp4\n",
      "Processing videos/test/pizza_tray-3.mp4\n",
      "Processed video saved to: videos/detected/pizza_tray-3_annotated.mp4\n",
      "Processing videos/test/tray_video.mkv\n",
      "Processed video saved to: videos/detected/tray_video_annotated.mkv\n",
      "ffmpeg version 4.4.2-0ubuntu0.22.04.1 Copyright (c) 2000-2021 the FFmpeg developers\n",
      "  built with gcc 11 (Ubuntu 11.2.0-19ubuntu1)\n",
      "  configuration: --prefix=/usr --extra-version=0ubuntu0.22.04.1 --toolchain=hardened --libdir=/usr/lib/x86_64-linux-gnu --incdir=/usr/include/x86_64-linux-gnu --arch=amd64 --enable-gpl --disable-stripping --enable-gnutls --enable-ladspa --enable-libaom --enable-libass --enable-libbluray --enable-libbs2b --enable-libcaca --enable-libcdio --enable-libcodec2 --enable-libdav1d --enable-libflite --enable-libfontconfig --enable-libfreetype --enable-libfribidi --enable-libgme --enable-libgsm --enable-libjack --enable-libmp3lame --enable-libmysofa --enable-libopenjpeg --enable-libopenmpt --enable-libopus --enable-libpulse --enable-librabbitmq --enable-librubberband --enable-libshine --enable-libsnappy --enable-libsoxr --enable-libspeex --enable-libsrt --enable-libssh --enable-libtheora --enable-libtwolame --enable-libvidstab --enable-libvorbis --enable-libvpx --enable-libwebp --enable-libx265 --enable-libxml2 --enable-libxvid --enable-libzimg --enable-libzmq --enable-libzvbi --enable-lv2 --enable-omx --enable-openal --enable-opencl --enable-opengl --enable-sdl2 --enable-pocketsphinx --enable-librsvg --enable-libmfx --enable-libdc1394 --enable-libdrm --enable-libiec61883 --enable-chromaprint --enable-frei0r --enable-libx264 --enable-shared\n",
      "  libavutil      56. 70.100 / 56. 70.100\n",
      "  libavcodec     58.134.100 / 58.134.100\n",
      "  libavformat    58. 76.100 / 58. 76.100\n",
      "  libavdevice    58. 13.100 / 58. 13.100\n",
      "  libavfilter     7.110.100 /  7.110.100\n",
      "  libswscale      5.  9.100 /  5.  9.100\n",
      "  libswresample   3.  9.100 /  3.  9.100\n",
      "  libpostproc    55.  9.100 / 55.  9.100\n",
      "Input #0, mov,mp4,m4a,3gp,3g2,mj2, from '/root/workspace/s7/videos/detected/orange_carrot_tray-4_annotated.mp4':\n",
      "  Metadata:\n",
      "    major_brand     : isom\n",
      "    minor_version   : 512\n",
      "    compatible_brands: isomiso2mp41\n",
      "    encoder         : Lavf59.27.100\n",
      "  Duration: 00:00:54.16, start: 0.000000, bitrate: 8411 kb/s\n",
      "  Stream #0:0(und): Video: mpeg4 (Simple Profile) (mp4v / 0x7634706D), yuv420p, 1920x1080 [SAR 1:1 DAR 16:9], 8410 kb/s, 29.97 fps, 29.97 tbr, 11988 tbn, 2997 tbc (default)\n",
      "    Metadata:\n",
      "      handler_name    : VideoHandler\n",
      "      vendor_id       : [0][0][0][0]\n",
      "Stream mapping:\n",
      "  Stream #0:0 -> #0:0 (mpeg4 (native) -> gif (native))\n",
      "Press [q] to stop, [?] for help\n",
      "Output #0, gif, to '/root/workspace/s7/videos/detected/orange_carrot_tray-4_annotated.gif':\n",
      "  Metadata:\n",
      "    major_brand     : isom\n",
      "    minor_version   : 512\n",
      "    compatible_brands: isomiso2mp41\n",
      "    encoder         : Lavf58.76.100\n",
      "  Stream #0:0(und): Video: gif, bgr8(pc, gbr/unknown/unknown, progressive), 320x180 [SAR 1:1 DAR 16:9], q=2-31, 200 kb/s, 10 fps, 100 tbn (default)\n",
      "    Metadata:\n",
      "      handler_name    : VideoHandler\n",
      "      vendor_id       : [0][0][0][0]\n",
      "      encoder         : Lavc58.134.100 gif\n",
      "frame=  542 fps=291 q=-0.0 Lsize=    6933kB time=00:00:54.11 bitrate=1049.7kbits/s speed=29.1x    \n",
      "video:6933kB audio:0kB subtitle:0kB other streams:0kB global headers:0kB muxing overhead: 0.000282%\n",
      "ffmpeg version 4.4.2-0ubuntu0.22.04.1 Copyright (c) 2000-2021 the FFmpeg developers\n",
      "  built with gcc 11 (Ubuntu 11.2.0-19ubuntu1)\n",
      "  configuration: --prefix=/usr --extra-version=0ubuntu0.22.04.1 --toolchain=hardened --libdir=/usr/lib/x86_64-linux-gnu --incdir=/usr/include/x86_64-linux-gnu --arch=amd64 --enable-gpl --disable-stripping --enable-gnutls --enable-ladspa --enable-libaom --enable-libass --enable-libbluray --enable-libbs2b --enable-libcaca --enable-libcdio --enable-libcodec2 --enable-libdav1d --enable-libflite --enable-libfontconfig --enable-libfreetype --enable-libfribidi --enable-libgme --enable-libgsm --enable-libjack --enable-libmp3lame --enable-libmysofa --enable-libopenjpeg --enable-libopenmpt --enable-libopus --enable-libpulse --enable-librabbitmq --enable-librubberband --enable-libshine --enable-libsnappy --enable-libsoxr --enable-libspeex --enable-libsrt --enable-libssh --enable-libtheora --enable-libtwolame --enable-libvidstab --enable-libvorbis --enable-libvpx --enable-libwebp --enable-libx265 --enable-libxml2 --enable-libxvid --enable-libzimg --enable-libzmq --enable-libzvbi --enable-lv2 --enable-omx --enable-openal --enable-opencl --enable-opengl --enable-sdl2 --enable-pocketsphinx --enable-librsvg --enable-libmfx --enable-libdc1394 --enable-libdrm --enable-libiec61883 --enable-chromaprint --enable-frei0r --enable-libx264 --enable-shared\n",
      "  libavutil      56. 70.100 / 56. 70.100\n",
      "  libavcodec     58.134.100 / 58.134.100\n",
      "  libavformat    58. 76.100 / 58. 76.100\n",
      "  libavdevice    58. 13.100 / 58. 13.100\n",
      "  libavfilter     7.110.100 /  7.110.100\n",
      "  libswscale      5.  9.100 /  5.  9.100\n",
      "  libswresample   3.  9.100 /  3.  9.100\n",
      "  libpostproc    55.  9.100 / 55.  9.100\n",
      "Input #0, mov,mp4,m4a,3gp,3g2,mj2, from '/root/workspace/s7/videos/detected/pizza_tray-3_annotated.mp4':\n",
      "  Metadata:\n",
      "    major_brand     : isom\n",
      "    minor_version   : 512\n",
      "    compatible_brands: isomiso2mp41\n",
      "    encoder         : Lavf59.27.100\n",
      "  Duration: 00:01:03.16, start: 0.000000, bitrate: 9484 kb/s\n",
      "  Stream #0:0(und): Video: mpeg4 (Simple Profile) (mp4v / 0x7634706D), yuv420p, 1080x1920 [SAR 1:1 DAR 9:16], 9483 kb/s, 29.97 fps, 29.97 tbr, 11988 tbn, 2997 tbc (default)\n",
      "    Metadata:\n",
      "      handler_name    : VideoHandler\n",
      "      vendor_id       : [0][0][0][0]\n",
      "Stream mapping:\n",
      "  Stream #0:0 -> #0:0 (mpeg4 (native) -> gif (native))\n",
      "Press [q] to stop, [?] for help\n",
      "Output #0, gif, to '/root/workspace/s7/videos/detected/pizza_tray-3_annotated.gif':\n",
      "  Metadata:\n",
      "    major_brand     : isom\n",
      "    minor_version   : 512\n",
      "    compatible_brands: isomiso2mp41\n",
      "    encoder         : Lavf58.76.100\n",
      "  Stream #0:0(und): Video: gif, bgr8(pc, gbr/unknown/unknown, progressive), 320x569 [SAR 5121:5120 DAR 9:16], q=2-31, 200 kb/s, 10 fps, 100 tbn (default)\n",
      "    Metadata:\n",
      "      handler_name    : VideoHandler\n",
      "      vendor_id       : [0][0][0][0]\n",
      "      encoder         : Lavc58.134.100 gif\n",
      "frame=  632 fps=157 q=-0.0 Lsize=   29244kB time=00:01:03.11 bitrate=3796.0kbits/s speed=15.7x    \n",
      "video:29244kB audio:0kB subtitle:0kB other streams:0kB global headers:0kB muxing overhead: 0.000067%\n",
      "ffmpeg version 4.4.2-0ubuntu0.22.04.1 Copyright (c) 2000-2021 the FFmpeg developers\n",
      "  built with gcc 11 (Ubuntu 11.2.0-19ubuntu1)\n",
      "  configuration: --prefix=/usr --extra-version=0ubuntu0.22.04.1 --toolchain=hardened --libdir=/usr/lib/x86_64-linux-gnu --incdir=/usr/include/x86_64-linux-gnu --arch=amd64 --enable-gpl --disable-stripping --enable-gnutls --enable-ladspa --enable-libaom --enable-libass --enable-libbluray --enable-libbs2b --enable-libcaca --enable-libcdio --enable-libcodec2 --enable-libdav1d --enable-libflite --enable-libfontconfig --enable-libfreetype --enable-libfribidi --enable-libgme --enable-libgsm --enable-libjack --enable-libmp3lame --enable-libmysofa --enable-libopenjpeg --enable-libopenmpt --enable-libopus --enable-libpulse --enable-librabbitmq --enable-librubberband --enable-libshine --enable-libsnappy --enable-libsoxr --enable-libspeex --enable-libsrt --enable-libssh --enable-libtheora --enable-libtwolame --enable-libvidstab --enable-libvorbis --enable-libvpx --enable-libwebp --enable-libx265 --enable-libxml2 --enable-libxvid --enable-libzimg --enable-libzmq --enable-libzvbi --enable-lv2 --enable-omx --enable-openal --enable-opencl --enable-opengl --enable-sdl2 --enable-pocketsphinx --enable-librsvg --enable-libmfx --enable-libdc1394 --enable-libdrm --enable-libiec61883 --enable-chromaprint --enable-frei0r --enable-libx264 --enable-shared\n",
      "  libavutil      56. 70.100 / 56. 70.100\n",
      "  libavcodec     58.134.100 / 58.134.100\n",
      "  libavformat    58. 76.100 / 58. 76.100\n",
      "  libavdevice    58. 13.100 / 58. 13.100\n",
      "  libavfilter     7.110.100 /  7.110.100\n",
      "  libswscale      5.  9.100 /  5.  9.100\n",
      "  libswresample   3.  9.100 /  3.  9.100\n",
      "  libpostproc    55.  9.100 / 55.  9.100\n",
      "Input #0, matroska,webm, from '/root/workspace/s7/videos/detected/tray_video_annotated.mkv':\n",
      "  Metadata:\n",
      "    ENCODER         : Lavf59.27.100\n",
      "  Duration: 00:02:10.70, start: 0.000000, bitrate: 1724 kb/s\n",
      "  Stream #0:0: Video: mpeg4 (Simple Profile), yuv420p, 640x480 [SAR 1:1 DAR 4:3], 30 fps, 30 tbr, 1k tbn, 30 tbc\n",
      "    Metadata:\n",
      "      DURATION        : 00:02:10.700000000\n",
      "Stream mapping:\n",
      "  Stream #0:0 -> #0:0 (mpeg4 (native) -> gif (native))\n",
      "Press [q] to stop, [?] for help\n",
      "Output #0, gif, to '/root/workspace/s7/videos/detected/tray_video_annotated.gif':\n",
      "  Metadata:\n",
      "    encoder         : Lavf58.76.100\n",
      "  Stream #0:0: Video: gif, bgr8(pc, gbr/unknown/unknown, progressive), 320x240 [SAR 1:1 DAR 4:3], q=2-31, 200 kb/s, 10 fps, 100 tbn\n",
      "    Metadata:\n",
      "      DURATION        : 00:02:10.700000000\n",
      "      encoder         : Lavc58.134.100 gif\n",
      "frame= 1307 fps=491 q=-0.0 Lsize=   16333kB time=00:02:10.61 bitrate=1024.4kbits/s speed=  49x    \n",
      "video:16333kB audio:0kB subtitle:0kB other streams:0kB global headers:0kB muxing overhead: 0.000120%\n",
      "  adding: root/workspace/s7/videos/detected/orange_carrot_tray-4_annotated.gif (deflated 0%)\n",
      "  adding: root/workspace/s7/videos/detected/pizza_tray-3_annotated.gif (deflated 0%)\n",
      "  adding: root/workspace/s7/videos/detected/tray_video_annotated.gif (deflated 0%)\n"
     ]
    }
   ],
   "source": [
    "!rm {ppath}/videos/detected/*\n",
    "detection_test(food_model_path=f\"{ppath}/models/food_detector_vfn.pt\")\n",
    "!bash scripts/convert_outputs.sh"
   ]
  },
  {
   "cell_type": "code",
   "execution_count": null,
   "metadata": {},
   "outputs": [],
   "source": [
    "gif_path = f\"{ppath}/videos/detected/pizza_tray-3_annotated.gif\"\n",
    "display(Image(filename=gif_path))"
   ]
  },
  {
   "cell_type": "markdown",
   "metadata": {},
   "source": [
    "## Out-of-the-Box YOLO Test"
   ]
  },
  {
   "cell_type": "code",
   "execution_count": null,
   "metadata": {},
   "outputs": [
    {
     "name": "stdout",
     "output_type": "stream",
     "text": [
      "Loading tray detection model from: models/tray_detector.pt\n",
      "Loading food detection model from: models/yolo11n.pt\n",
      "Processing videos/test/orange_carrot_tray-4.mp4\n",
      "Processed video saved to: videos/detected/orange_carrot_tray-4_annotated.mp4\n",
      "Processing videos/test/pizza_tray-3.mp4\n",
      "Processed video saved to: videos/detected/pizza_tray-3_annotated.mp4\n",
      "Processing videos/test/tray_video.mkv\n",
      "Processed video saved to: videos/detected/tray_video_annotated.mkv\n",
      "ffmpeg version 4.4.2-0ubuntu0.22.04.1 Copyright (c) 2000-2021 the FFmpeg developers\n",
      "  built with gcc 11 (Ubuntu 11.2.0-19ubuntu1)\n",
      "  configuration: --prefix=/usr --extra-version=0ubuntu0.22.04.1 --toolchain=hardened --libdir=/usr/lib/x86_64-linux-gnu --incdir=/usr/include/x86_64-linux-gnu --arch=amd64 --enable-gpl --disable-stripping --enable-gnutls --enable-ladspa --enable-libaom --enable-libass --enable-libbluray --enable-libbs2b --enable-libcaca --enable-libcdio --enable-libcodec2 --enable-libdav1d --enable-libflite --enable-libfontconfig --enable-libfreetype --enable-libfribidi --enable-libgme --enable-libgsm --enable-libjack --enable-libmp3lame --enable-libmysofa --enable-libopenjpeg --enable-libopenmpt --enable-libopus --enable-libpulse --enable-librabbitmq --enable-librubberband --enable-libshine --enable-libsnappy --enable-libsoxr --enable-libspeex --enable-libsrt --enable-libssh --enable-libtheora --enable-libtwolame --enable-libvidstab --enable-libvorbis --enable-libvpx --enable-libwebp --enable-libx265 --enable-libxml2 --enable-libxvid --enable-libzimg --enable-libzmq --enable-libzvbi --enable-lv2 --enable-omx --enable-openal --enable-opencl --enable-opengl --enable-sdl2 --enable-pocketsphinx --enable-librsvg --enable-libmfx --enable-libdc1394 --enable-libdrm --enable-libiec61883 --enable-chromaprint --enable-frei0r --enable-libx264 --enable-shared\n",
      "  libavutil      56. 70.100 / 56. 70.100\n",
      "  libavcodec     58.134.100 / 58.134.100\n",
      "  libavformat    58. 76.100 / 58. 76.100\n",
      "  libavdevice    58. 13.100 / 58. 13.100\n",
      "  libavfilter     7.110.100 /  7.110.100\n",
      "  libswscale      5.  9.100 /  5.  9.100\n",
      "  libswresample   3.  9.100 /  3.  9.100\n",
      "  libpostproc    55.  9.100 / 55.  9.100\n",
      "Input #0, mov,mp4,m4a,3gp,3g2,mj2, from '/root/workspace/s7/videos/detected/orange_carrot_tray-4_annotated.mp4':\n",
      "  Metadata:\n",
      "    major_brand     : isom\n",
      "    minor_version   : 512\n",
      "    compatible_brands: isomiso2mp41\n",
      "    encoder         : Lavf59.27.100\n",
      "  Duration: 00:00:54.16, start: 0.000000, bitrate: 7449 kb/s\n",
      "  Stream #0:0(und): Video: mpeg4 (Simple Profile) (mp4v / 0x7634706D), yuv420p, 1920x1080 [SAR 1:1 DAR 16:9], 7448 kb/s, 29.97 fps, 29.97 tbr, 11988 tbn, 2997 tbc (default)\n",
      "    Metadata:\n",
      "      handler_name    : VideoHandler\n",
      "      vendor_id       : [0][0][0][0]\n",
      "Stream mapping:\n",
      "  Stream #0:0 -> #0:0 (mpeg4 (native) -> gif (native))\n",
      "Press [q] to stop, [?] for help\n",
      "Output #0, gif, to '/root/workspace/s7/videos/detected/orange_carrot_tray-4_annotated.gif':\n",
      "  Metadata:\n",
      "    major_brand     : isom\n",
      "    minor_version   : 512\n",
      "    compatible_brands: isomiso2mp41\n",
      "    encoder         : Lavf58.76.100\n",
      "  Stream #0:0(und): Video: gif, bgr8(pc, gbr/unknown/unknown, progressive), 320x180 [SAR 1:1 DAR 16:9], q=2-31, 200 kb/s, 10 fps, 100 tbn (default)\n",
      "    Metadata:\n",
      "      handler_name    : VideoHandler\n",
      "      vendor_id       : [0][0][0][0]\n",
      "      encoder         : Lavc58.134.100 gif\n",
      "frame=  542 fps=267 q=-0.0 Lsize=    6821kB time=00:00:54.11 bitrate=1032.6kbits/s speed=26.7x    \n",
      "video:6821kB audio:0kB subtitle:0kB other streams:0kB global headers:0kB muxing overhead: 0.000286%\n",
      "ffmpeg version 4.4.2-0ubuntu0.22.04.1 Copyright (c) 2000-2021 the FFmpeg developers\n",
      "  built with gcc 11 (Ubuntu 11.2.0-19ubuntu1)\n",
      "  configuration: --prefix=/usr --extra-version=0ubuntu0.22.04.1 --toolchain=hardened --libdir=/usr/lib/x86_64-linux-gnu --incdir=/usr/include/x86_64-linux-gnu --arch=amd64 --enable-gpl --disable-stripping --enable-gnutls --enable-ladspa --enable-libaom --enable-libass --enable-libbluray --enable-libbs2b --enable-libcaca --enable-libcdio --enable-libcodec2 --enable-libdav1d --enable-libflite --enable-libfontconfig --enable-libfreetype --enable-libfribidi --enable-libgme --enable-libgsm --enable-libjack --enable-libmp3lame --enable-libmysofa --enable-libopenjpeg --enable-libopenmpt --enable-libopus --enable-libpulse --enable-librabbitmq --enable-librubberband --enable-libshine --enable-libsnappy --enable-libsoxr --enable-libspeex --enable-libsrt --enable-libssh --enable-libtheora --enable-libtwolame --enable-libvidstab --enable-libvorbis --enable-libvpx --enable-libwebp --enable-libx265 --enable-libxml2 --enable-libxvid --enable-libzimg --enable-libzmq --enable-libzvbi --enable-lv2 --enable-omx --enable-openal --enable-opencl --enable-opengl --enable-sdl2 --enable-pocketsphinx --enable-librsvg --enable-libmfx --enable-libdc1394 --enable-libdrm --enable-libiec61883 --enable-chromaprint --enable-frei0r --enable-libx264 --enable-shared\n",
      "  libavutil      56. 70.100 / 56. 70.100\n",
      "  libavcodec     58.134.100 / 58.134.100\n",
      "  libavformat    58. 76.100 / 58. 76.100\n",
      "  libavdevice    58. 13.100 / 58. 13.100\n",
      "  libavfilter     7.110.100 /  7.110.100\n",
      "  libswscale      5.  9.100 /  5.  9.100\n",
      "  libswresample   3.  9.100 /  3.  9.100\n",
      "  libpostproc    55.  9.100 / 55.  9.100\n",
      "Input #0, mov,mp4,m4a,3gp,3g2,mj2, from '/root/workspace/s7/videos/detected/pizza_tray-3_annotated.mp4':\n",
      "  Metadata:\n",
      "    major_brand     : isom\n",
      "    minor_version   : 512\n",
      "    compatible_brands: isomiso2mp41\n",
      "    encoder         : Lavf59.27.100\n",
      "  Duration: 00:01:03.16, start: 0.000000, bitrate: 10138 kb/s\n",
      "  Stream #0:0(und): Video: mpeg4 (Simple Profile) (mp4v / 0x7634706D), yuv420p, 1080x1920 [SAR 1:1 DAR 9:16], 10137 kb/s, 29.97 fps, 29.97 tbr, 11988 tbn, 2997 tbc (default)\n",
      "    Metadata:\n",
      "      handler_name    : VideoHandler\n",
      "      vendor_id       : [0][0][0][0]\n",
      "Stream mapping:\n",
      "  Stream #0:0 -> #0:0 (mpeg4 (native) -> gif (native))\n",
      "Press [q] to stop, [?] for help\n",
      "Output #0, gif, to '/root/workspace/s7/videos/detected/pizza_tray-3_annotated.gif':\n",
      "  Metadata:\n",
      "    major_brand     : isom\n",
      "    minor_version   : 512\n",
      "    compatible_brands: isomiso2mp41\n",
      "    encoder         : Lavf58.76.100\n",
      "  Stream #0:0(und): Video: gif, bgr8(pc, gbr/unknown/unknown, progressive), 320x569 [SAR 5121:5120 DAR 9:16], q=2-31, 200 kb/s, 10 fps, 100 tbn (default)\n",
      "    Metadata:\n",
      "      handler_name    : VideoHandler\n",
      "      vendor_id       : [0][0][0][0]\n",
      "      encoder         : Lavc58.134.100 gif\n",
      "frame=  632 fps=144 q=-0.0 Lsize=   29648kB time=00:01:03.11 bitrate=3848.5kbits/s speed=14.4x    \n",
      "video:29648kB audio:0kB subtitle:0kB other streams:0kB global headers:0kB muxing overhead: 0.000066%\n",
      "ffmpeg version 4.4.2-0ubuntu0.22.04.1 Copyright (c) 2000-2021 the FFmpeg developers\n",
      "  built with gcc 11 (Ubuntu 11.2.0-19ubuntu1)\n",
      "  configuration: --prefix=/usr --extra-version=0ubuntu0.22.04.1 --toolchain=hardened --libdir=/usr/lib/x86_64-linux-gnu --incdir=/usr/include/x86_64-linux-gnu --arch=amd64 --enable-gpl --disable-stripping --enable-gnutls --enable-ladspa --enable-libaom --enable-libass --enable-libbluray --enable-libbs2b --enable-libcaca --enable-libcdio --enable-libcodec2 --enable-libdav1d --enable-libflite --enable-libfontconfig --enable-libfreetype --enable-libfribidi --enable-libgme --enable-libgsm --enable-libjack --enable-libmp3lame --enable-libmysofa --enable-libopenjpeg --enable-libopenmpt --enable-libopus --enable-libpulse --enable-librabbitmq --enable-librubberband --enable-libshine --enable-libsnappy --enable-libsoxr --enable-libspeex --enable-libsrt --enable-libssh --enable-libtheora --enable-libtwolame --enable-libvidstab --enable-libvorbis --enable-libvpx --enable-libwebp --enable-libx265 --enable-libxml2 --enable-libxvid --enable-libzimg --enable-libzmq --enable-libzvbi --enable-lv2 --enable-omx --enable-openal --enable-opencl --enable-opengl --enable-sdl2 --enable-pocketsphinx --enable-librsvg --enable-libmfx --enable-libdc1394 --enable-libdrm --enable-libiec61883 --enable-chromaprint --enable-frei0r --enable-libx264 --enable-shared\n",
      "  libavutil      56. 70.100 / 56. 70.100\n",
      "  libavcodec     58.134.100 / 58.134.100\n",
      "  libavformat    58. 76.100 / 58. 76.100\n",
      "  libavdevice    58. 13.100 / 58. 13.100\n",
      "  libavfilter     7.110.100 /  7.110.100\n",
      "  libswscale      5.  9.100 /  5.  9.100\n",
      "  libswresample   3.  9.100 /  3.  9.100\n",
      "  libpostproc    55.  9.100 / 55.  9.100\n",
      "Input #0, matroska,webm, from '/root/workspace/s7/videos/detected/tray_video_annotated.mkv':\n",
      "  Metadata:\n",
      "    ENCODER         : Lavf59.27.100\n",
      "  Duration: 00:02:10.70, start: 0.000000, bitrate: 1892 kb/s\n",
      "  Stream #0:0: Video: mpeg4 (Simple Profile), yuv420p, 640x480 [SAR 1:1 DAR 4:3], 30 fps, 30 tbr, 1k tbn, 30 tbc\n",
      "    Metadata:\n",
      "      DURATION        : 00:02:10.700000000\n",
      "Stream mapping:\n",
      "  Stream #0:0 -> #0:0 (mpeg4 (native) -> gif (native))\n",
      "Press [q] to stop, [?] for help\n",
      "Output #0, gif, to '/root/workspace/s7/videos/detected/tray_video_annotated.gif':\n",
      "  Metadata:\n",
      "    encoder         : Lavf58.76.100\n",
      "  Stream #0:0: Video: gif, bgr8(pc, gbr/unknown/unknown, progressive), 320x240 [SAR 1:1 DAR 4:3], q=2-31, 200 kb/s, 10 fps, 100 tbn\n",
      "    Metadata:\n",
      "      DURATION        : 00:02:10.700000000\n",
      "      encoder         : Lavc58.134.100 gif\n",
      "frame= 1307 fps=501 q=-0.0 Lsize=   16771kB time=00:02:10.61 bitrate=1051.9kbits/s speed=50.1x    \n",
      "video:16771kB audio:0kB subtitle:0kB other streams:0kB global headers:0kB muxing overhead: 0.000116%\n",
      "  adding: root/workspace/s7/videos/detected/orange_carrot_tray-4_annotated.gif (deflated 0%)\n",
      "  adding: root/workspace/s7/videos/detected/pizza_tray-3_annotated.gif (deflated 0%)\n",
      "  adding: root/workspace/s7/videos/detected/tray_video_annotated.gif (deflated 0%)\n"
     ]
    }
   ],
   "source": [
    "!rm {ppath}/videos/detected/*\n",
    "detection_test()\n",
    "!bash scripts/convert_outputs.sh"
   ]
  },
  {
   "cell_type": "code",
   "execution_count": null,
   "metadata": {},
   "outputs": [],
   "source": [
    "gif_path = f\"{ppath}/videos/detected/pizza_tray-3_annotated.gif\"\n",
    "display(Image(filename=gif_path))"
   ]
  }
 ],
 "metadata": {
  "kernelspec": {
   "display_name": "Python 3 (ipykernel)",
   "language": "python",
   "name": "python3"
  },
  "language_info": {
   "codemirror_mode": {
    "name": "ipython",
    "version": 3
   },
   "file_extension": ".py",
   "mimetype": "text/x-python",
   "name": "python",
   "nbconvert_exporter": "python",
   "pygments_lexer": "ipython3",
   "version": "3.10.15"
  }
 },
 "nbformat": 4,
 "nbformat_minor": 4
}
